<svg width="70" height="70" viewBox="0 0 70 70" fill="none" xmlns="http://www.w3.org/2000/svg">
<path d="M30.5791 2.0761C31.1961 1.84089 32.3673 2.18642 32.7559 2.67181C33.1962 3.14417 33.2603 3.408 33.374 3.67376C33.7501 4.77019 33.7693 5.62016 33.6611 6.52337C33.647 6.641 33.6326 6.76012 33.6162 6.87981C33.472 7.93234 33.384 9.10675 33.1856 10.3388C33.5122 10.4451 33.9804 10.5621 34.4844 10.7118C35.1275 10.9319 35.9514 11.1118 36.8535 12.0683C36.9742 12.2051 37.0907 12.3595 37.1943 12.5283C37.3316 12.763 37.4714 13.057 37.5117 13.5107C37.5621 13.9547 37.3939 14.5897 37.085 14.9726C36.4411 15.7328 35.9887 15.7416 35.7031 15.8368C35.4611 15.8913 35.2787 15.9072 35.1152 15.9169C34.4148 15.9544 33.7142 15.9966 33.0068 16.038C33.0026 16.0804 32.9967 16.1226 32.9922 16.165C33.4261 17.527 33.5927 18.1803 33.8838 18.454C33.8904 18.4632 33.8977 18.4722 33.9043 18.4814C34.1898 18.8782 34.4763 19.2771 34.7627 19.6786C35.0475 20.078 35.3327 20.4818 35.6152 20.8896C35.6203 20.8968 35.6259 20.9048 35.6309 20.912C36.1902 21.719 36.7789 22.5549 37.3379 23.4472C37.3413 23.4526 37.3452 23.4584 37.3486 23.4638C37.9895 24.4885 38.6276 25.4546 39.3223 26.3779C39.3241 26.3803 39.3263 26.3832 39.3281 26.3857C40.1876 27.5015 41.3993 28.9223 42.2568 30.4531C42.2574 30.4539 42.2583 30.4551 42.2588 30.456C42.8669 31.5316 44.2948 32.9384 45.2783 34.665C45.2808 34.6692 45.2837 34.6744 45.2861 34.6786C46.3561 36.4495 47.4145 38.4501 48.4629 39.7216C49.3227 40.7642 50.0237 41.8119 50.6846 42.787C50.6861 42.7892 50.688 42.7917 50.6895 42.7939C51.2947 43.6866 51.8987 44.5705 52.5 45.3378C52.5028 45.3414 52.506 45.345 52.5088 45.3486C53.3532 46.4313 54.5502 47.4655 55.6983 49.2411C55.703 49.2489 55.7082 49.2568 55.7129 49.2646C56.1242 49.9459 56.6223 50.7272 57.0703 51.5908C57.4704 52.5286 58.1252 53.2168 57.999 55.3183C57.9969 55.3326 57.9945 55.3472 57.9922 55.3613C57.8524 56.1072 57.5984 56.4741 57.3379 56.9003C57.336 56.9033 57.3339 56.9061 57.332 56.9091C56.8708 57.6092 56.3904 58.7401 55.3789 59.8173C55.3763 59.8201 55.3737 59.8233 55.3711 59.8261C54.5821 60.6742 53.4754 62.0297 52.0586 62.9325C52.056 62.9343 52.0534 62.9367 52.0508 62.9384C51.3022 63.423 50.4517 64.1463 49.1211 64.7304C49.1189 64.7313 49.1165 64.7324 49.1143 64.7333C48.0409 65.1929 46.8618 65.7311 45.5068 66.081H45.5059C44.4415 66.3396 43.4729 66.6955 41.9512 66.9238C41.9479 66.9242 41.9438 66.9243 41.9404 66.9247C41.2422 67.0097 40.4419 67.1757 39.5322 67.3154C39.5276 67.3161 39.5223 67.3176 39.5176 67.3183C38.5374 67.4575 37.4813 67.7891 35.9404 67.9296C35.9319 67.9302 35.9226 67.931 35.9141 67.9316C33.4427 68.1313 30.4866 68.4176 27.4297 67.6913C27.425 67.6902 27.4197 67.6886 27.4151 67.6874C26.1457 67.3625 24.8864 67.0149 23.6553 66.7568C23.6485 66.7554 23.6415 66.7533 23.6348 66.7519C22.8578 66.5895 21.9361 66.4415 20.96 66.12C20.9494 66.1165 20.9384 66.1129 20.9277 66.1093C20.0133 65.8031 19.0721 65.4172 18.1358 64.8818C18.1238 64.8749 18.1116 64.8672 18.0996 64.8603C17.1819 64.3553 15.7628 63.8427 14.4883 63.3925C14.475 63.3879 14.4614 63.3835 14.4483 63.3788C14.0939 63.2509 13.5964 63.1024 12.9912 62.829C12.6837 62.6821 12.3357 62.524 11.8926 62.1415C11.4572 61.8165 10.8813 60.822 11.0225 60.0038C11.0275 59.9625 11.0331 59.9208 11.0391 59.8837C11.2888 58.7691 11.5928 58.4499 11.7598 57.7988C11.7651 57.7792 11.7701 57.759 11.7754 57.7392C12.1476 56.3917 12.5782 55.1725 13.0322 53.873C13.0388 53.8545 13.0451 53.8356 13.0518 53.8173C13.6815 52.2765 14.2885 51.3358 14.6318 50.124C14.6366 50.1081 14.6408 50.0919 14.6455 50.0761C14.9306 49.1647 15.1556 48.1911 15.6748 47.12C15.6814 47.1068 15.6877 47.0933 15.6943 47.08C16.1235 46.2176 16.5271 45.3951 16.7608 44.6181C16.7643 44.6063 16.7679 44.5939 16.7715 44.582C17.0792 43.5521 17.3877 42.4497 17.8418 41.3505C17.8454 41.3419 17.849 41.3328 17.8526 41.3242C18.1931 40.5006 18.4091 39.6386 18.7363 38.6796C18.7392 38.6713 18.7422 38.6625 18.7451 38.6542C19.6977 36.1316 20.7931 34.1053 21.3633 31.8925C21.365 31.8861 21.3674 31.8794 21.3692 31.873C21.9602 29.7392 22.3016 27.6134 23.3584 25.1855C23.3594 25.1836 23.3604 25.1816 23.3613 25.1796C23.9146 23.8504 24.5327 21.7947 25.2002 20.0868C25.4394 19.449 25.68 18.8183 25.9209 18.1816L25.9219 18.1786C25.9773 18.0324 26.0355 17.8871 26.0918 17.7411C25.9744 17.5202 25.8569 17.2946 25.7412 17.0624C25.7396 17.0591 25.7379 17.055 25.7363 17.0517C25.692 16.9594 25.6511 16.8659 25.6084 16.7743C25.5365 16.7839 25.4644 16.7964 25.3926 16.8056C24.5111 16.9179 23.6165 17.0268 22.6016 17.0331C22.082 17.024 21.558 17.0339 20.7783 16.8017C20.3928 16.6645 19.7898 16.4629 19.291 15.6923C18.7992 14.8844 18.9486 14.0586 19.0908 13.6337C19.1305 13.5141 19.1784 13.3848 19.2305 13.2607C20.0931 11.4671 21.2542 10.8048 22.2197 9.80071C21.9727 9.41726 21.6926 8.99279 21.4326 8.55559C21.2014 8.16013 20.9672 7.76295 20.7549 7.18352C20.6596 6.88397 20.5229 6.5498 20.5674 5.91302C20.5949 5.59533 20.724 5.14991 21.0322 4.78802C21.3383 4.42507 21.7058 4.24464 21.9932 4.15227C22.1135 4.11326 22.2277 4.09128 22.3242 4.07903C22.922 4.02873 23.1185 4.14186 23.335 4.2011C23.5333 4.26968 23.6857 4.34035 23.8242 4.40911C24.0991 4.54738 24.3249 4.68538 24.542 4.82317C24.9732 5.09913 25.3608 5.37671 25.7481 5.65032C25.7493 5.65119 25.7508 5.6524 25.752 5.65325C25.8662 5.73713 25.981 5.82092 26.0947 5.90423C26.3546 5.64578 26.6147 5.38692 26.876 5.12884C27.2987 4.71153 27.7279 4.29077 28.1563 3.87688C28.3739 3.66672 28.5922 3.45771 28.8154 3.24798C28.8844 3.18324 28.954 3.12047 29.0244 3.05559C29.138 2.94344 29.2613 2.82717 29.4014 2.70891C29.6624 2.50525 29.9568 2.25206 30.5791 2.0761ZM53.1817 55.4706C52.7602 55.7911 52.3546 56.0938 51.8975 56.4101C51.8572 56.4377 51.817 56.4648 51.7764 56.4921C50.9225 57.0668 49.9936 57.5663 49.0215 57.9511C48.9919 57.9631 48.9622 57.975 48.9326 57.9872C48.2413 58.2727 47.5611 58.6441 46.8203 59.0712C46.7905 59.0883 46.7595 59.1059 46.7295 59.123C45.7686 59.6687 44.8175 60.1841 43.8447 60.6552C43.816 60.669 43.7874 60.6837 43.7588 60.6972C42.7005 61.2009 41.6027 61.5486 40.707 61.8437C40.6777 61.8535 40.6484 61.8636 40.6192 61.873C39.524 62.2197 38.5474 62.2544 37.7852 62.331C37.7778 62.3314 37.7696 62.3314 37.7617 62.332C37.303 62.3664 35.7152 62.8409 34.4776 62.8661C34.4596 62.867 34.441 62.8671 34.4229 62.8681C32.9444 62.9474 31.4362 63.0988 29.8779 63.2187C29.8696 63.2193 29.8609 63.22 29.8526 63.2206C29.6721 63.234 29.4838 63.2547 29.2901 63.2822C28.7197 63.363 28.1035 63.498 27.4551 63.6464C27.7372 63.7032 28.0187 63.7608 28.2998 63.8173C28.3029 63.8179 28.3065 63.8187 28.3096 63.8193C30.4367 64.21 32.8242 63.8416 35.5703 63.5068C35.5735 63.5064 35.5768 63.5052 35.5801 63.5048C36.3421 63.4201 37.5169 63.0945 38.8184 62.8749C38.8221 62.8743 38.8264 62.8736 38.8301 62.873C39.5737 62.7516 40.412 62.5632 41.375 62.4384C41.3762 62.4382 41.3777 62.4376 41.3789 62.4374C41.732 62.3895 42.2024 62.2744 42.7236 62.1357L44.377 61.6923C45.3036 61.4558 46.3014 61.0754 47.3965 60.6269C47.3987 60.626 47.4011 60.6249 47.4033 60.624C47.9457 60.4184 48.6966 59.8627 49.6436 59.249C49.6469 59.2468 49.65 59.2442 49.6533 59.2421C50.5458 58.6965 51.2013 57.9447 52.2725 56.8359C52.2756 56.8327 52.2791 56.8293 52.2822 56.8261C52.606 56.5206 52.924 56.0178 53.335 55.3495C53.2832 55.3894 53.2333 55.4312 53.1817 55.4706ZM47.6719 45.9169C47.7016 46.1093 47.7768 46.2322 47.7656 46.2431C47.7649 46.2438 47.7634 46.2455 47.7568 46.249C46.7123 46.8087 45.6803 47.1363 44.8174 47.4306C44.7988 47.4369 44.7801 47.4439 44.7617 47.4501C44.7383 47.4571 44.6682 47.4777 44.6445 47.4833C44.2051 47.6054 43.7733 47.7213 43.3545 47.8368C42.8251 47.9829 42.317 48.129 41.8311 48.289C41.7982 48.2998 41.7651 48.3112 41.7324 48.3222C40.6933 48.6588 39.828 48.7674 39.332 48.9296C39.3007 48.9392 39.2703 48.9492 39.2412 48.9589C38.3283 49.2635 37.445 49.4461 36.6543 49.6064C36.59 49.6194 36.5263 49.6327 36.4629 49.6454C36.3811 49.6493 35.3761 50.0092 34.6621 50.1181C33.9 50.2531 33.1815 50.295 32.4902 50.3007C31.1088 50.3067 29.8297 50.175 28.5654 50.0068C28.4915 49.9968 28.4163 49.9861 28.3408 49.9755C27.9594 49.9198 27.5683 49.8683 27.1699 49.8154C24.3888 49.9664 21.8714 49.7768 19.1328 49.4589C18.9779 49.4378 18.823 49.3578 18.6748 49.288C18.3219 49.2299 17.9982 49.0366 17.75 48.8232C17.5219 49.4139 17.3284 50.1131 17.1123 50.8212C17.1074 50.8376 17.1027 50.8545 17.0977 50.871C16.6977 52.2904 15.8909 53.7081 15.5254 54.6992C15.5216 54.7103 15.5173 54.7214 15.5137 54.7324C15.3632 55.1946 15.2267 55.6764 15.1045 56.164C15.6563 56.0887 16.1993 56.0805 16.7861 56.1718C16.7808 56.1691 16.8311 56.176 16.8692 56.1806C19.3316 56.4354 22.1289 56.4011 24.7705 56.2118C24.818 56.2084 24.8653 56.2055 24.9121 56.2021C26.8347 56.057 28.7686 55.975 30.5459 55.7734C30.5799 55.7694 30.6141 55.7648 30.6484 55.7607C32.157 55.5838 33.7576 55.2794 35.5567 55.1874C35.5857 55.1861 35.615 55.1848 35.6436 55.1835C37.1192 55.1082 38.575 55.106 39.7041 54.8456C39.7223 54.8415 39.7405 54.8372 39.7588 54.8329C40.5385 54.6523 41.5529 54.3532 42.6318 54.2372C42.6445 54.2359 42.6573 54.2338 42.6699 54.2324C42.7493 54.2236 42.8295 54.2118 42.9111 54.2001C42.9681 54.14 43.0288 54.0829 43.0947 54.0312C43.3841 53.8046 43.6723 53.5831 43.959 53.3652C45.6489 52.0806 47.3934 50.8046 49.0225 49.5615C49.2771 49.3449 49.5245 49.1214 49.7705 48.873C49.7785 48.8652 49.7874 48.8579 49.7959 48.8505C49.8049 48.8424 49.8135 48.8344 49.8223 48.8271C49.8274 48.8227 49.8318 48.8186 49.8369 48.8144C49.6082 48.5488 49.3755 48.2729 49.1455 47.9853C49.1418 47.9805 49.1375 47.9754 49.1338 47.9706C48.5962 47.2751 48.1233 46.5923 47.6719 45.9169ZM49.8291 48.8251C49.8249 48.8295 49.8196 48.8348 49.8067 48.8486C49.7965 48.8596 49.8023 48.8527 49.7617 48.8984C49.7336 48.9379 49.7372 48.9072 49.5996 49.122C49.6308 49.0979 49.6623 49.0738 49.6934 49.0497C49.6993 49.045 49.7049 49.0398 49.71 49.0351C49.738 49.0076 49.7682 48.9568 49.7979 48.9042C49.8129 48.8778 49.8282 48.8496 49.8438 48.8242L49.8447 48.8222C49.8428 48.8199 49.8408 48.8176 49.8389 48.8154C49.8368 48.8171 49.834 48.8202 49.8291 48.8251ZM23.3174 35.246C22.6865 36.8074 21.9573 38.2658 21.4365 39.6122C21.4342 39.6187 21.431 39.6254 21.4287 39.6318C21.1731 40.3421 20.8765 41.1346 20.5381 41.9218C21.5276 42.2219 22.3694 42.5539 23.209 42.7607C23.2246 42.7646 23.2402 42.7685 23.2559 42.7724C23.677 42.876 24.205 42.8836 24.7852 42.8993C25.1571 42.9098 25.5545 42.9247 25.9668 42.9755C26.0033 42.98 26.0402 42.9853 26.0772 42.9902C28.2713 43.1571 31.0024 42.991 33.4238 42.7997C33.4974 42.7932 33.5695 42.7868 33.6397 42.7802C34.1263 42.7348 34.9272 42.4867 35.9151 42.3251C36.0243 42.3081 36.1372 42.2927 36.2539 42.2792C36.5182 42.2717 37.305 41.9072 38.2139 41.5302C38.3236 41.4864 38.4377 41.4426 38.5567 41.4003C39.6074 41.0257 40.6371 40.8727 41.5049 40.705C41.6162 40.6835 41.7259 40.6615 41.833 40.6396C42.5293 40.495 43.1835 40.3726 43.8174 40.2402C43.0826 39.0267 42.5024 37.8728 41.8027 36.7079C41.8004 36.7039 41.7982 36.6993 41.7959 36.6952C41.5446 36.229 41.2378 35.8005 40.8965 35.3554C40.8558 35.3917 40.8047 35.4312 40.7402 35.4658C40.7084 35.4797 40.6149 35.5236 40.582 35.5341C40.5769 35.5363 40.5717 35.5389 40.5664 35.5409C39.9149 35.793 39.2397 36.0327 38.5615 36.2382C38.2999 36.3177 38.0374 36.3927 37.7754 36.4628C37.7621 36.4664 37.7487 36.47 37.7354 36.4736C37.7103 36.4802 37.6349 36.4971 37.6094 36.5019C36.6282 36.692 35.1641 37.1254 33.6963 37.0995C33.6553 37.0994 33.6137 37.0992 33.5723 37.0986C31.4383 37.0099 29.5775 37.2386 26.9307 36.6806C26.8335 36.6541 26.7367 36.6248 26.6406 36.5937C25.6438 36.2186 24.6828 36.1405 23.3174 35.246ZM38.8955 33.8945C38.903 34.1206 39.0103 34.6164 39.4424 34.9687C39.8528 35.2932 40.1921 35.3009 40.3428 35.3134C40.6728 35.3171 40.7335 35.277 40.8086 35.2646C40.814 35.2632 40.8193 35.2619 40.8242 35.2607C40.7401 35.1519 40.6544 35.0415 40.5664 34.9296C40.5401 34.933 40.5138 34.9367 40.4873 34.9384C40.1738 34.958 39.8576 34.8568 39.5576 34.6611C39.2609 34.4653 39.0042 34.1908 38.8955 33.8945ZM27.6445 20.9443C27.0318 22.7247 26.7748 24.2967 25.9453 26.414C25.9432 26.4185 25.9406 26.4232 25.9385 26.4277C25.7007 26.9905 25.4962 27.6246 25.3047 28.2997C25.536 28.3911 25.7362 28.5509 25.876 28.7607C26.0072 28.9577 26.0759 29.1868 26.0801 29.4199C26.3625 29.5211 26.6634 29.63 27.0049 29.7802C27.0345 29.7902 27.0662 29.8003 27.1006 29.8105C27.6008 29.9915 28.8123 29.8948 30.1572 30.3417C30.1744 30.347 30.1989 30.3537 30.2276 30.3613C31.0512 30.5613 32.5543 30.5045 33.7813 30.3554C33.8148 30.3512 33.8493 30.3469 33.8828 30.3427C34.7222 30.2369 35.5645 30.136 36.3809 29.998C36.3971 29.9952 36.4136 29.992 36.4297 29.9892C36.6151 29.9574 36.8025 29.927 36.9951 29.8954C36.7223 29.5482 36.4346 29.1833 36.1289 28.788C36.1266 28.785 36.1234 28.7822 36.1211 28.7792C35.3355 27.7338 34.6221 26.6377 33.9639 25.5712C33.9604 25.5656 33.9566 25.5593 33.9531 25.5536C33.4577 24.7513 32.9203 23.9379 32.3721 23.0849C32.3671 23.0771 32.3615 23.0693 32.3565 23.0615C32.0888 22.6438 31.8232 22.2206 31.5615 21.7919C31.4725 21.6461 31.3849 21.4987 31.2969 21.3515C31.2208 21.4172 31.135 21.4877 31.0352 21.5605C30.6967 21.804 29.9371 22.0524 29.2451 21.8368C28.5635 21.6323 28.2084 21.2252 27.9971 20.913C27.9745 20.8805 27.9518 20.8462 27.9297 20.8124C27.8765 20.7306 27.8245 20.6475 27.7715 20.5654C27.7292 20.6915 27.6859 20.8175 27.6445 20.9443ZM33.8877 14.4765C33.906 14.5004 33.925 14.5179 33.9375 14.5263C33.982 14.543 33.9511 14.5085 33.8701 14.4452C33.8761 14.4558 33.8819 14.4665 33.8877 14.4765Z" fill="#C76BE8"/>
</svg>
