<svg width="24" height="24" viewBox="0 0 24 24" fill="none" xmlns="http://www.w3.org/2000/svg">
<path d="M4.35348 12.6989C4.03949 12.6989 3.77783 12.632 3.56851 12.4983C3.36394 12.3646 3.21408 12.1903 3.11893 11.9754C3.02379 11.7606 2.98573 11.5361 3.00476 11.3022C3.02379 11.0634 3.10466 10.839 3.24738 10.6289C3.39011 10.4188 3.59943 10.2517 3.87536 10.1275L18.7755 3.21575C19.1513 3.04385 19.4986 2.97461 19.8174 3.00804C20.1409 3.03669 20.4049 3.1489 20.6095 3.34468C20.8188 3.54045 20.9449 3.79591 20.9877 4.11106C21.0305 4.42143 20.9615 4.77239 20.7808 5.16394L13.9158 20.0547C13.7779 20.3508 13.6018 20.5752 13.3878 20.728C13.1737 20.8808 12.9453 20.9691 12.7027 20.993C12.4601 21.0169 12.2317 20.9787 12.0176 20.8784C11.8083 20.7829 11.6347 20.6301 11.4967 20.42C11.3635 20.2147 11.2969 19.9544 11.2969 19.6393L11.2826 12.8708C11.2826 12.7753 11.235 12.7275 11.1399 12.7275L4.35348 12.6989Z" fill="#0E0E11"/>
</svg>
